<?xml version="1.0" encoding="UTF-8" standalone="no"?>
<!DOCTYPE svg PUBLIC "-//W3C//DTD SVG 1.1//EN"
 "http://www.w3.org/Graphics/SVG/1.1/DTD/svg11.dtd">
<!-- Generated by graphviz version 2.40.1 (20161225.0304)
 -->
<!-- Title: G Pages: 1 -->
<svg width="155pt" height="905pt"
 viewBox="0.00 0.00 155.02 905.00" xmlns="http://www.w3.org/2000/svg" xmlns:xlink="http://www.w3.org/1999/xlink">
<g id="graph0" class="graph" transform="scale(1 1) rotate(0) translate(4 901)">
<title>G</title>
<polygon fill="#ffffff" stroke="transparent" points="-4,4 -4,-901 151.0161,-901 151.0161,4 -4,4"/>
<g id="clust1" class="cluster">
<title>cluster_Global</title>
<path fill="none" stroke="#c0c0c0" d="M20,-8C20,-8 127.0161,-8 127.0161,-8 133.0161,-8 139.0161,-14 139.0161,-20 139.0161,-20 139.0161,-877 139.0161,-877 139.0161,-883 133.0161,-889 127.0161,-889 127.0161,-889 20,-889 20,-889 14,-889 8,-883 8,-877 8,-877 8,-20 8,-20 8,-14 14,-8 20,-8"/>
<text text-anchor="middle" x="73.5081" y="-876.2" font-family="Times,serif" font-size="11.00" fill="#c0c0c0">Global</text>
</g>
<!-- \\TemplateLoader -->
<g id="node1" class="node">
<title>\\TemplateLoader</title>
<polygon fill="none" stroke="#000000" points="127.9239,-862 19.0922,-862 19.0922,-826 127.9239,-826 127.9239,-862"/>
<text text-anchor="middle" x="73.5081" y="-840.7" font-family="Courier,monospace" font-size="11.00" fill="#000000">TemplateLoader</text>
</g>
<!-- \\PollCreator -->
<g id="node2" class="node">
<title>\\PollCreator</title>
<polygon fill="none" stroke="#000000" points="117.6207,-808 29.3954,-808 29.3954,-772 117.6207,-772 117.6207,-808"/>
<text text-anchor="middle" x="73.5081" y="-786.7" font-family="Courier,monospace" font-size="11.00" fill="#000000">PollCreator</text>
</g>
<!-- \\Config -->
<g id="node3" class="node">
<title>\\Config</title>
<polygon fill="none" stroke="#000000" points="101.1159,-754 45.9002,-754 45.9002,-718 101.1159,-718 101.1159,-754"/>
<text text-anchor="middle" x="73.5081" y="-732.7" font-family="Courier,monospace" font-size="11.00" fill="#000000">Config</text>
</g>
<!-- \\URL -->
<g id="node4" class="node">
<title>\\URL</title>
<polygon fill="none" stroke="#000000" points="100.5081,-700 46.5081,-700 46.5081,-664 100.5081,-664 100.5081,-700"/>
<text text-anchor="middle" x="73.5081" y="-678.7" font-family="Courier,monospace" font-size="11.00" fill="#000000">URL</text>
</g>
<!-- \\Poll -->
<g id="node5" class="node">
<title>\\Poll</title>
<polygon fill="none" stroke="#000000" points="100.5081,-646 46.5081,-646 46.5081,-610 100.5081,-610 100.5081,-646"/>
<text text-anchor="middle" x="73.5081" y="-624.7" font-family="Courier,monospace" font-size="11.00" fill="#000000">Poll</text>
</g>
<!-- \\Utilities -->
<g id="node6" class="node">
<title>\\Utilities</title>
<polygon fill="none" stroke="#000000" points="111.4188,-592 35.5973,-592 35.5973,-556 111.4188,-556 111.4188,-592"/>
<text text-anchor="middle" x="73.5081" y="-570.7" font-family="Courier,monospace" font-size="11.00" fill="#000000">Utilities</text>
</g>
<!-- \\Export -->
<g id="node7" class="node">
<title>\\Export</title>
<polygon fill="none" stroke="#000000" points="101.1159,-538 45.9002,-538 45.9002,-502 101.1159,-502 101.1159,-538"/>
<text text-anchor="middle" x="73.5081" y="-516.7" font-family="Courier,monospace" font-size="11.00" fill="#000000">Export</text>
</g>
<!-- \\Captcha -->
<g id="node8" class="node">
<title>\\Captcha</title>
<polygon fill="none" stroke="#000000" points="104.7159,-484 42.3002,-484 42.3002,-448 104.7159,-448 104.7159,-484"/>
<text text-anchor="middle" x="73.5081" y="-462.7" font-family="Courier,monospace" font-size="11.00" fill="#000000">Captcha</text>
</g>
<!-- \\EditPoll -->
<g id="node9" class="node">
<title>\\EditPoll</title>
<polygon fill="none" stroke="#000000" points="107.8169,-430 39.1992,-430 39.1992,-394 107.8169,-394 107.8169,-430"/>
<text text-anchor="middle" x="73.5081" y="-408.7" font-family="Courier,monospace" font-size="11.00" fill="#000000">EditPoll</text>
</g>
<!-- \\CSSManager -->
<g id="node10" class="node">
<title>\\CSSManager</title>
<polygon fill="none" stroke="#000000" points="114.5188,-376 32.4973,-376 32.4973,-340 114.5188,-340 114.5188,-376"/>
<text text-anchor="middle" x="73.5081" y="-354.7" font-family="Courier,monospace" font-size="11.00" fill="#000000">CSSManager</text>
</g>
<!-- \\CookieBanner -->
<g id="node11" class="node">
<title>\\CookieBanner</title>
<polygon fill="none" stroke="#000000" points="121.2212,-322 25.7949,-322 25.7949,-286 121.2212,-286 121.2212,-322"/>
<text text-anchor="middle" x="73.5081" y="-300.7" font-family="Courier,monospace" font-size="11.00" fill="#000000">CookieBanner</text>
</g>
<!-- \\Parsedown -->
<g id="node12" class="node">
<title>\\Parsedown</title>
<polygon fill="none" stroke="#000000" points="111.4188,-268 35.5973,-268 35.5973,-232 111.4188,-232 111.4188,-268"/>
<text text-anchor="middle" x="73.5081" y="-246.7" font-family="Courier,monospace" font-size="11.00" fill="#000000">Parsedown</text>
</g>
<!-- \\Template -->
<g id="node13" class="node">
<title>\\Template</title>
<polygon fill="none" stroke="#000000" points="107.8169,-214 39.1992,-214 39.1992,-178 107.8169,-178 107.8169,-214"/>
<text text-anchor="middle" x="73.5081" y="-192.7" font-family="Courier,monospace" font-size="11.00" fill="#000000">Template</text>
</g>
<!-- \\LanguageManager -->
<g id="node14" class="node">
<title>\\LanguageManager</title>
<polygon fill="none" stroke="#000000" points="131.0242,-160 15.9919,-160 15.9919,-124 131.0242,-124 131.0242,-160"/>
<text text-anchor="middle" x="73.5081" y="-138.7" font-family="Courier,monospace" font-size="11.00" fill="#000000">LanguageManager</text>
</g>
<!-- \\PollAdmin -->
<g id="node15" class="node">
<title>\\PollAdmin</title>
<polygon fill="none" stroke="#000000" points="111.4188,-106 35.5973,-106 35.5973,-70 111.4188,-70 111.4188,-106"/>
<text text-anchor="middle" x="73.5081" y="-84.7" font-family="Courier,monospace" font-size="11.00" fill="#000000">PollAdmin</text>
</g>
<!-- \\JSONReader -->
<g id="node16" class="node">
<title>\\JSONReader</title>
<polygon fill="none" stroke="#000000" points="114.5188,-52 32.4973,-52 32.4973,-16 114.5188,-16 114.5188,-52"/>
<text text-anchor="middle" x="73.5081" y="-30.7" font-family="Courier,monospace" font-size="11.00" fill="#000000">JSONReader</text>
</g>
</g>
</svg>
