<?xml version="1.0" encoding="UTF-8" standalone="no"?>
<!DOCTYPE svg PUBLIC "-//W3C//DTD SVG 1.1//EN"
 "http://www.w3.org/Graphics/SVG/1.1/DTD/svg11.dtd">
<!-- Generated by graphviz version 2.38.0 (20140413.2041)
 -->
<!-- Title: G Pages: 1 -->
<svg width="327pt" height="1068pt"
 viewBox="0.00 0.00 327.00 1068.00" xmlns="http://www.w3.org/2000/svg" xmlns:xlink="http://www.w3.org/1999/xlink">
<g id="graph0" class="graph" transform="scale(1 1) rotate(0) translate(4 1064)">
<title>G</title>
<polygon fill="white" stroke="none" points="-4,4 -4,-1064 323,-1064 323,4 -4,4"/>
<g id="clust1" class="cluster"><title>cluster_Global</title>
<path fill="none" stroke="gray" d="M20,-8C20,-8 299,-8 299,-8 305,-8 311,-14 311,-20 311,-20 311,-1040 311,-1040 311,-1046 305,-1052 299,-1052 299,-1052 20,-1052 20,-1052 14,-1052 8,-1046 8,-1040 8,-1040 8,-20 8,-20 8,-14 14,-8 20,-8"/>
<text text-anchor="middle" x="159.5" y="-1039.2" font-family="Times,serif" font-size="11.00" fill="gray">Global</text>
</g>
<!-- \\CSSManager -->
<g id="node1" class="node"><title>\\CSSManager</title>
<polygon fill="none" stroke="black" points="279.5,-1024 195.5,-1024 195.5,-988 279.5,-988 279.5,-1024"/>
<text text-anchor="middle" x="237.5" y="-1003.2" font-family="Courier,monospace" font-size="11.00">CSSManager</text>
</g>
<!-- \\Template -->
<g id="node2" class="node"><title>\\Template</title>
<polygon fill="none" stroke="black" points="273,-970 202,-970 202,-934 273,-934 273,-970"/>
<text text-anchor="middle" x="237.5" y="-949.2" font-family="Courier,monospace" font-size="11.00">Template</text>
</g>
<!-- \\PollCreator -->
<g id="node3" class="node"><title>\\PollCreator</title>
<polygon fill="none" stroke="black" points="283,-916 192,-916 192,-880 283,-880 283,-916"/>
<text text-anchor="middle" x="237.5" y="-895.2" font-family="Courier,monospace" font-size="11.00">PollCreator</text>
</g>
<!-- \\Poll -->
<g id="node4" class="node"><title>\\Poll</title>
<polygon fill="none" stroke="black" points="264.5,-862 210.5,-862 210.5,-826 264.5,-826 264.5,-862"/>
<text text-anchor="middle" x="237.5" y="-841.2" font-family="Courier,monospace" font-size="11.00">Poll</text>
</g>
<!-- \\JSONReader -->
<g id="node5" class="node"><title>\\JSONReader</title>
<polygon fill="none" stroke="black" points="279.5,-808 195.5,-808 195.5,-772 279.5,-772 279.5,-808"/>
<text text-anchor="middle" x="237.5" y="-787.2" font-family="Courier,monospace" font-size="11.00">JSONReader</text>
</g>
<!-- \\Reader -->
<g id="node10" class="node"><title>\\Reader</title>
<polygon fill="none" stroke="black" points="100,-808 16,-808 16,-772 100,-772 100,-808"/>
<text text-anchor="start" x="24" y="-793.2" font-family="Courier,monospace" font-size="11.00">«abstract»</text>
<text text-anchor="start" x="37.5" y="-781.2" font-family="Courier,monospace" font-size="11.00">Reader</text>
</g>
<!-- \\JSONReader&#45;&gt;\\Reader -->
<g id="edge1" class="edge"><title>\\JSONReader&#45;&gt;\\Reader</title>
<path fill="none" stroke="black" d="M195.332,-790C169.995,-790 137.314,-790 110.3,-790"/>
<polygon fill="none" stroke="black" points="110.252,-786.5 100.252,-790 110.252,-793.5 110.252,-786.5"/>
</g>
<!-- \\Mail -->
<g id="node6" class="node"><title>\\Mail</title>
<polygon fill="none" stroke="black" points="264.5,-754 210.5,-754 210.5,-718 264.5,-718 264.5,-754"/>
<text text-anchor="middle" x="237.5" y="-733.2" font-family="Courier,monospace" font-size="11.00">Mail</text>
</g>
<!-- \\Captcha -->
<g id="node7" class="node"><title>\\Captcha</title>
<polygon fill="none" stroke="black" points="269.5,-700 205.5,-700 205.5,-664 269.5,-664 269.5,-700"/>
<text text-anchor="middle" x="237.5" y="-679.2" font-family="Courier,monospace" font-size="11.00">Captcha</text>
</g>
<!-- \\URL -->
<g id="node8" class="node"><title>\\URL</title>
<polygon fill="none" stroke="black" points="264.5,-646 210.5,-646 210.5,-610 264.5,-610 264.5,-646"/>
<text text-anchor="middle" x="237.5" y="-625.2" font-family="Courier,monospace" font-size="11.00">URL</text>
</g>
<!-- \\DelUserSubmission -->
<g id="node9" class="node"><title>\\DelUserSubmission</title>
<polygon fill="none" stroke="black" points="303,-592 172,-592 172,-556 303,-556 303,-592"/>
<text text-anchor="middle" x="237.5" y="-571.2" font-family="Courier,monospace" font-size="11.00">DelUserSubmission</text>
</g>
<!-- \\PollAdmin -->
<g id="node11" class="node"><title>\\PollAdmin</title>
<polygon fill="none" stroke="black" points="276,-538 199,-538 199,-502 276,-502 276,-538"/>
<text text-anchor="middle" x="237.5" y="-517.2" font-family="Courier,monospace" font-size="11.00">PollAdmin</text>
</g>
<!-- \\TemplateLoader -->
<g id="node12" class="node"><title>\\TemplateLoader</title>
<polygon fill="none" stroke="black" points="293,-484 182,-484 182,-448 293,-448 293,-484"/>
<text text-anchor="middle" x="237.5" y="-463.2" font-family="Courier,monospace" font-size="11.00">TemplateLoader</text>
</g>
<!-- \\Config -->
<g id="node13" class="node"><title>\\Config</title>
<polygon fill="none" stroke="black" points="266,-430 209,-430 209,-394 266,-394 266,-430"/>
<text text-anchor="middle" x="237.5" y="-409.2" font-family="Courier,monospace" font-size="11.00">Config</text>
</g>
<!-- \\Utilities -->
<g id="node14" class="node"><title>\\Utilities</title>
<polygon fill="none" stroke="black" points="276,-376 199,-376 199,-340 276,-340 276,-376"/>
<text text-anchor="middle" x="237.5" y="-355.2" font-family="Courier,monospace" font-size="11.00">Utilities</text>
</g>
<!-- \\LanguageManager -->
<g id="node15" class="node"><title>\\LanguageManager</title>
<polygon fill="none" stroke="black" points="296.5,-322 178.5,-322 178.5,-286 296.5,-286 296.5,-322"/>
<text text-anchor="middle" x="237.5" y="-301.2" font-family="Courier,monospace" font-size="11.00">LanguageManager</text>
</g>
<!-- \\CookieBanner -->
<g id="node16" class="node"><title>\\CookieBanner</title>
<polygon fill="none" stroke="black" points="286.5,-268 188.5,-268 188.5,-232 286.5,-232 286.5,-268"/>
<text text-anchor="middle" x="237.5" y="-247.2" font-family="Courier,monospace" font-size="11.00">CookieBanner</text>
</g>
<!-- \\Export -->
<g id="node17" class="node"><title>\\Export</title>
<polygon fill="none" stroke="black" points="266,-214 209,-214 209,-178 266,-178 266,-214"/>
<text text-anchor="middle" x="237.5" y="-193.2" font-family="Courier,monospace" font-size="11.00">Export</text>
</g>
<!-- \\EditPoll -->
<g id="node18" class="node"><title>\\EditPoll</title>
<polygon fill="none" stroke="black" points="273,-160 202,-160 202,-124 273,-124 273,-160"/>
<text text-anchor="middle" x="237.5" y="-139.2" font-family="Courier,monospace" font-size="11.00">EditPoll</text>
</g>
<!-- \\Parsedown -->
<g id="node19" class="node"><title>\\Parsedown</title>
<polygon fill="none" stroke="black" points="276,-106 199,-106 199,-70 276,-70 276,-106"/>
<text text-anchor="middle" x="237.5" y="-85.2" font-family="Courier,monospace" font-size="11.00">Parsedown</text>
</g>
<!-- \\SubmissionQuery -->
<g id="node20" class="node"><title>\\SubmissionQuery</title>
<polygon fill="none" stroke="black" points="296.5,-52 178.5,-52 178.5,-16 296.5,-16 296.5,-52"/>
<text text-anchor="middle" x="237.5" y="-31.2" font-family="Courier,monospace" font-size="11.00">SubmissionQuery</text>
</g>
</g>
</svg>
